<mxfile host="www.draw.io" modified="2020-02-19T09:06:00.242Z" agent="Mozilla/5.0 (Macintosh; Intel Mac OS X 10_12_6) AppleWebKit/537.36 (KHTML, like Gecko) Chrome/80.0.3987.100 Safari/537.36" etag="T5YWBBNCk5-ib0gfL5yW" version="12.7.1" type="github">
  <diagram name="Page-1" id="929967ad-93f9-6ef4-fab6-5d389245f69c">
    <mxGraphModel dx="946" dy="477" grid="0" gridSize="10" guides="1" tooltips="1" connect="1" arrows="1" fold="1" page="1" pageScale="1.5" pageWidth="1169" pageHeight="826" background="none" math="0" shadow="0">
      <root>
        <mxCell id="0" style=";html=1;" />
        <mxCell id="1" style=";html=1;" parent="0" />
        <mxCell id="5Qe0i08L96EMoIZPyxdd-1" value="" style="rounded=0;whiteSpace=wrap;html=1;fillColor=#CCCCCC;" parent="1" vertex="1">
          <mxGeometry x="360" y="572" width="463" height="539" as="geometry" />
        </mxCell>
        <mxCell id="5Qe0i08L96EMoIZPyxdd-61" value="" style="rounded=0;whiteSpace=wrap;html=1;fillColor=#FFFFFF;" parent="1" vertex="1">
          <mxGeometry x="394.38" y="979" width="390" height="117" as="geometry" />
        </mxCell>
        <mxCell id="5Qe0i08L96EMoIZPyxdd-2" value="" style="rounded=0;whiteSpace=wrap;html=1;fillColor=#FFFFFF;" parent="1" vertex="1">
          <mxGeometry x="394.38" y="600" width="390" height="31" as="geometry" />
        </mxCell>
        <mxCell id="5Qe0i08L96EMoIZPyxdd-3" value="&lt;span style=&quot;font-size: 14px&quot;&gt;simulation parameter&lt;/span&gt;" style="text;html=1;strokeColor=none;fillColor=none;align=center;verticalAlign=middle;whiteSpace=wrap;rounded=0;" parent="1" vertex="1">
          <mxGeometry x="393.75" y="605.5" width="156" height="20" as="geometry" />
        </mxCell>
        <mxCell id="5Qe0i08L96EMoIZPyxdd-4" value="" style="rounded=0;whiteSpace=wrap;html=1;fillColor=#FFFFFF;" parent="1" vertex="1">
          <mxGeometry x="395" y="645" width="390" height="169" as="geometry" />
        </mxCell>
        <mxCell id="5Qe0i08L96EMoIZPyxdd-5" value="&lt;font style=&quot;font-size: 14px&quot;&gt;initial topology&lt;/font&gt;" style="text;html=1;strokeColor=none;fillColor=none;align=center;verticalAlign=middle;whiteSpace=wrap;rounded=0;" parent="1" vertex="1">
          <mxGeometry x="393.75" y="650" width="110" height="20" as="geometry" />
        </mxCell>
        <mxCell id="5Qe0i08L96EMoIZPyxdd-7" value="" style="rounded=0;whiteSpace=wrap;html=1;fillColor=#FFFFFF;" parent="1" vertex="1">
          <mxGeometry x="394.38" y="825" width="390" height="140" as="geometry" />
        </mxCell>
        <mxCell id="5Qe0i08L96EMoIZPyxdd-8" value="&lt;font style=&quot;font-size: 14px&quot;&gt;deployment&lt;/font&gt;" style="text;html=1;strokeColor=none;fillColor=none;align=center;verticalAlign=middle;whiteSpace=wrap;rounded=0;" parent="1" vertex="1">
          <mxGeometry x="371" y="828" width="145" height="20" as="geometry" />
        </mxCell>
        <mxCell id="5Qe0i08L96EMoIZPyxdd-10" value="&lt;font style=&quot;font-size: 14px&quot;&gt;output&lt;/font&gt;" style="text;html=1;strokeColor=none;fillColor=none;align=center;verticalAlign=middle;whiteSpace=wrap;rounded=0;" parent="1" vertex="1">
          <mxGeometry x="353.13" y="985" width="145" height="20" as="geometry" />
        </mxCell>
        <mxCell id="5Qe0i08L96EMoIZPyxdd-28" value="&lt;span style=&quot;font-size: 14px&quot;&gt;experiement&lt;/span&gt;" style="text;html=1;strokeColor=none;fillColor=none;align=center;verticalAlign=middle;whiteSpace=wrap;rounded=0;" parent="1" vertex="1">
          <mxGeometry x="367.5" y="576" width="80" height="20" as="geometry" />
        </mxCell>
        <mxCell id="5Qe0i08L96EMoIZPyxdd-46" value="" style="rounded=0;whiteSpace=wrap;html=1;fillColor=#FFFFFF;" parent="1" vertex="1">
          <mxGeometry x="447.5" y="672" width="112.5" height="124" as="geometry" />
        </mxCell>
        <mxCell id="5Qe0i08L96EMoIZPyxdd-47" value="&lt;font style=&quot;font-size: 14px&quot;&gt;node&lt;/font&gt;" style="text;html=1;strokeColor=none;fillColor=none;align=center;verticalAlign=middle;whiteSpace=wrap;rounded=0;" parent="1" vertex="1">
          <mxGeometry x="402.5" y="674" width="145" height="20" as="geometry" />
        </mxCell>
        <mxCell id="5Qe0i08L96EMoIZPyxdd-48" value="attributes" style="rounded=0;whiteSpace=wrap;html=1;fillColor=#FFFFFF;" parent="1" vertex="1">
          <mxGeometry x="462.5" y="697" width="80" height="20" as="geometry" />
        </mxCell>
        <mxCell id="5Qe0i08L96EMoIZPyxdd-50" value="connection" style="rounded=0;whiteSpace=wrap;html=1;fillColor=#FFFFFF;" parent="1" vertex="1">
          <mxGeometry x="462.5" y="730" width="80" height="20" as="geometry" />
        </mxCell>
        <mxCell id="5Qe0i08L96EMoIZPyxdd-65" value="interface" style="rounded=0;whiteSpace=wrap;html=1;fillColor=#FFFFFF;" parent="1" vertex="1">
          <mxGeometry x="462.5" y="762" width="80" height="20" as="geometry" />
        </mxCell>
        <mxCell id="8bPRrZk837UZEJNE2kn6-9" value="" style="rounded=0;whiteSpace=wrap;html=1;" vertex="1" parent="1">
          <mxGeometry x="658.29" y="889" width="110" height="60" as="geometry" />
        </mxCell>
        <mxCell id="8bPRrZk837UZEJNE2kn6-10" value="" style="rounded=0;whiteSpace=wrap;html=1;" vertex="1" parent="1">
          <mxGeometry x="535" y="889" width="110" height="60" as="geometry" />
        </mxCell>
        <mxCell id="8bPRrZk837UZEJNE2kn6-12" value="&lt;font style=&quot;font-size: 14px&quot;&gt;runTime&lt;/font&gt;" style="text;html=1;strokeColor=none;fillColor=none;align=center;verticalAlign=middle;whiteSpace=wrap;rounded=0;" vertex="1" parent="1">
          <mxGeometry x="620.4978181818182" y="895" width="133.57575757575756" height="20" as="geometry" />
        </mxCell>
        <mxCell id="8bPRrZk837UZEJNE2kn6-6" value="functions" style="rounded=0;whiteSpace=wrap;html=1;fillColor=#FFFFFF;" vertex="1" parent="1">
          <mxGeometry x="676.8087878787878" y="918" width="73.6969696969697" height="20" as="geometry" />
        </mxCell>
        <mxCell id="8bPRrZk837UZEJNE2kn6-13" value="&lt;font style=&quot;font-size: 14px&quot;&gt;mobilty&lt;/font&gt;" style="text;html=1;strokeColor=none;fillColor=none;align=center;verticalAlign=middle;whiteSpace=wrap;rounded=0;" vertex="1" parent="1">
          <mxGeometry x="497.49781818181816" y="892" width="133.57575757575756" height="20" as="geometry" />
        </mxCell>
        <mxCell id="8bPRrZk837UZEJNE2kn6-14" value="attributes" style="rounded=0;whiteSpace=wrap;html=1;fillColor=#FFFFFF;" vertex="1" parent="1">
          <mxGeometry x="552.5087878787879" y="918" width="73.6969696969697" height="20" as="geometry" />
        </mxCell>
        <mxCell id="8bPRrZk837UZEJNE2kn6-22" value="" style="rounded=0;whiteSpace=wrap;html=1;fillColor=#FFFFFF;" vertex="1" parent="1">
          <mxGeometry x="620.5" y="672" width="112.5" height="124" as="geometry" />
        </mxCell>
        <mxCell id="8bPRrZk837UZEJNE2kn6-23" value="&lt;font style=&quot;font-size: 14px&quot;&gt;connection&lt;/font&gt;" style="text;html=1;strokeColor=none;fillColor=none;align=center;verticalAlign=middle;whiteSpace=wrap;rounded=0;" vertex="1" parent="1">
          <mxGeometry x="588" y="674.5" width="145" height="20" as="geometry" />
        </mxCell>
        <mxCell id="8bPRrZk837UZEJNE2kn6-24" value="from" style="rounded=0;whiteSpace=wrap;html=1;fillColor=#FFFFFF;" vertex="1" parent="1">
          <mxGeometry x="635.5" y="697" width="80" height="20" as="geometry" />
        </mxCell>
        <mxCell id="8bPRrZk837UZEJNE2kn6-25" value="to" style="rounded=0;whiteSpace=wrap;html=1;fillColor=#FFFFFF;" vertex="1" parent="1">
          <mxGeometry x="635.5" y="730" width="80" height="20" as="geometry" />
        </mxCell>
        <mxCell id="8bPRrZk837UZEJNE2kn6-26" value="attributes" style="rounded=0;whiteSpace=wrap;html=1;fillColor=#FFFFFF;" vertex="1" parent="1">
          <mxGeometry x="635.5" y="762" width="80" height="20" as="geometry" />
        </mxCell>
        <mxCell id="8bPRrZk837UZEJNE2kn6-27" value="" style="rounded=0;whiteSpace=wrap;html=1;fillColor=#FFFFFF;" vertex="1" parent="1">
          <mxGeometry x="409.75" y="859.5" width="112.5" height="91" as="geometry" />
        </mxCell>
        <mxCell id="8bPRrZk837UZEJNE2kn6-28" value="&lt;font style=&quot;font-size: 14px&quot;&gt;node&lt;/font&gt;" style="text;html=1;strokeColor=none;fillColor=none;align=center;verticalAlign=middle;whiteSpace=wrap;rounded=0;" vertex="1" parent="1">
          <mxGeometry x="364.75" y="861.5" width="145" height="20" as="geometry" />
        </mxCell>
        <mxCell id="8bPRrZk837UZEJNE2kn6-29" value="functions" style="rounded=0;whiteSpace=wrap;html=1;fillColor=#FFFFFF;" vertex="1" parent="1">
          <mxGeometry x="424.75" y="884.5" width="80" height="20" as="geometry" />
        </mxCell>
        <mxCell id="8bPRrZk837UZEJNE2kn6-30" value="mobility" style="rounded=0;whiteSpace=wrap;html=1;fillColor=#FFFFFF;" vertex="1" parent="1">
          <mxGeometry x="424.75" y="917.5" width="80" height="20" as="geometry" />
        </mxCell>
        <mxCell id="8bPRrZk837UZEJNE2kn6-32" value="" style="rounded=0;whiteSpace=wrap;html=1;" vertex="1" parent="1">
          <mxGeometry x="535.63" y="1000" width="110" height="84" as="geometry" />
        </mxCell>
        <mxCell id="8bPRrZk837UZEJNE2kn6-33" value="&lt;font style=&quot;font-size: 14px&quot;&gt;print&lt;/font&gt;" style="text;html=1;strokeColor=none;fillColor=none;align=center;verticalAlign=middle;whiteSpace=wrap;rounded=0;" vertex="1" parent="1">
          <mxGeometry x="494.12781818181816" y="1003" width="133.57575757575756" height="20" as="geometry" />
        </mxCell>
        <mxCell id="8bPRrZk837UZEJNE2kn6-34" value="node" style="rounded=0;whiteSpace=wrap;html=1;fillColor=#FFFFFF;" vertex="1" parent="1">
          <mxGeometry x="553.1387878787879" y="1029" width="73.6969696969697" height="20" as="geometry" />
        </mxCell>
        <mxCell id="8bPRrZk837UZEJNE2kn6-35" value="connection" style="rounded=0;whiteSpace=wrap;html=1;fillColor=#FFFFFF;" vertex="1" parent="1">
          <mxGeometry x="554.0687878787878" y="1055.5" width="73.6969696969697" height="20" as="geometry" />
        </mxCell>
      </root>
    </mxGraphModel>
  </diagram>
</mxfile>
